<?xml version="1.0" standalone="no"?>
<!DOCTYPE svg PUBLIC "-//W3C//DTD SVG 20010904//EN"
 "http://www.w3.org/TR/2001/REC-SVG-20010904/DTD/svg10.dtd">
<svg version="1.0" xmlns="http://www.w3.org/2000/svg"
 width="2026.000000pt" height="2026.000000pt" viewBox="0 0 2026.000000 2026.000000"
 preserveAspectRatio="xMidYMid meet">
<metadata>
Created by potrace 1.14, written by Peter Selinger 2001-2017
</metadata>
<g transform="translate(0.000000,2026.000000) scale(0.100000,-0.100000)"
fill="#000000" stroke="none">
<path d="M9997 19946 c-84 -30 -112 -47 -160 -100 -45 -50 -78 -104 -102 -171
-23 -64 -25 -66 -77 -76 -23 -4 -54 -11 -68 -14 -14 -3 -45 -8 -70 -11 -25 -3
-48 -8 -51 -10 -3 -1 -28 -6 -55 -10 -27 -3 -56 -7 -64 -9 -8 -1 -35 -6 -60
-9 -44 -7 -241 -43 -390 -71 -107 -20 -240 -44 -340 -59 -30 -5 -66 -13 -119
-27 -9 -2 -28 17 -47 45 -55 82 -128 134 -231 165 -66 20 -101 18 -194 -9 -92
-27 -164 -83 -217 -169 -44 -71 -49 -86 -57 -155 -8 -71 -4 -69 -202 -135
-103 -35 -192 -64 -197 -66 -6 -1 -18 -5 -26 -8 -73 -27 -348 -124 -375 -131
-5 -2 -17 -6 -25 -10 -25 -10 -793 -276 -945 -327 -49 -16 -97 -32 -105 -36
-17 -6 -588 -202 -665 -227 -27 -10 -59 -21 -70 -26 -18 -8 -187 -68 -210 -74
-5 -2 -17 -5 -25 -8 -8 -3 -55 -20 -105 -37 -49 -18 -97 -36 -105 -42 -35 -22
-43 -20 -100 35 -131 125 -285 153 -443 81 -68 -32 -124 -84 -171 -161 -69
-114 -79 -227 -29 -334 40 -86 43 -105 25 -132 -9 -12 -19 -25 -22 -28 -4 -3
-20 -25 -37 -50 -17 -25 -41 -56 -53 -70 -12 -14 -95 -122 -183 -240 -89 -118
-166 -220 -172 -227 -5 -6 -37 -46 -70 -88 -33 -42 -89 -114 -125 -159 -36
-44 -121 -157 -188 -251 -67 -93 -152 -208 -189 -255 -37 -47 -137 -177 -222
-290 -85 -113 -157 -207 -161 -210 -3 -3 -23 -29 -44 -59 -21 -30 -43 -59 -48
-65 -5 -6 -54 -72 -110 -146 -55 -74 -104 -136 -109 -138 -5 -2 -9 -10 -9 -17
0 -7 -3 -15 -7 -17 -5 -1 -21 -21 -38 -42 -16 -22 -48 -62 -69 -90 -45 -58
-189 -249 -214 -285 -9 -13 -22 -28 -28 -35 -5 -6 -44 -56 -85 -111 -40 -55
-76 -102 -79 -105 -3 -3 -27 -34 -55 -70 -27 -36 -53 -66 -57 -68 -5 -2 -8 -8
-8 -13 0 -6 -5 -15 -10 -22 -6 -7 -45 -57 -86 -112 -41 -55 -82 -109 -92 -120
-10 -11 -25 -31 -33 -45 -14 -22 -161 -215 -187 -246 -5 -6 -65 -84 -133 -173
-68 -90 -131 -171 -139 -182 -15 -19 -16 -19 -70 2 -57 22 -144 23 -186 2 -10
-6 -41 -20 -67 -33 -133 -65 -230 -224 -221 -366 4 -69 39 -171 77 -220 36
-48 114 -108 170 -132 34 -15 43 -29 37 -57 -2 -13 -9 -1424 -12 -2538 -1
-515 -4 -941 -7 -946 -4 -4 -33 -21 -65 -37 -78 -38 -145 -104 -182 -179 -27
-55 -29 -69 -29 -165 1 -138 23 -198 105 -280 55 -55 145 -107 213 -124 l27
-6 1 -258 c1 -141 2 -313 3 -382 1 -115 0 -125 -19 -135 -25 -13 -104 -65
-128 -85 -32 -25 -94 -123 -112 -175 -46 -132 11 -313 128 -406 105 -84 212
-114 313 -86 28 7 58 11 67 8 14 -5 204 -253 563 -736 62 -83 147 -197 190
-255 88 -117 94 -126 128 -190 25 -48 196 -471 196 -486 0 -5 7 -22 16 -39 8
-16 29 -66 45 -110 17 -44 40 -102 51 -130 25 -60 27 -66 68 -175 18 -47 36
-94 40 -105 76 -179 127 -305 169 -416 22 -58 49 -127 61 -152 l22 -47 -48
-55 c-73 -86 -96 -143 -100 -248 -3 -79 -1 -97 27 -168 64 -166 214 -263 393
-252 44 2 79 13 133 40 l73 37 39 -30 c22 -16 99 -76 172 -134 74 -58 175
-135 226 -172 51 -37 100 -75 110 -83 10 -8 32 -25 49 -37 41 -30 196 -149
210 -163 6 -5 22 -17 34 -25 36 -24 78 -56 125 -95 17 -14 45 -35 62 -48 41
-28 45 -38 27 -72 -42 -80 23 -270 125 -364 53 -49 148 -93 231 -106 24 -3
127 23 175 45 24 11 50 20 58 20 13 0 551 -402 673 -503 10 -9 123 -94 249
-188 127 -95 289 -218 360 -274 72 -55 245 -187 386 -293 141 -106 265 -203
277 -215 l22 -23 -20 -39 c-24 -47 -25 -82 -5 -157 39 -150 143 -267 273 -304
189 -55 350 16 468 207 l35 55 206 -2 c113 -2 212 -5 219 -8 7 -3 16 -1 19 5
4 5 10 7 15 4 5 -3 281 -8 612 -11 332 -3 722 -7 868 -9 146 -2 319 -4 386 -4
l121 -1 36 -57 c45 -75 104 -136 154 -161 128 -66 282 -61 389 11 47 31 132
127 157 175 l12 24 445 -2 c694 -3 868 -5 872 -10 3 -3 22 -36 42 -75 44 -81
65 -106 124 -147 158 -109 356 -91 495 46 77 76 122 170 124 261 1 80 -11 69
143 136 52 22 114 50 137 60 93 42 384 169 388 169 2 0 32 13 67 29 35 17 92
42 128 57 36 14 98 42 138 60 41 19 76 34 78 34 3 0 24 9 47 19 105 48 520
231 692 306 105 46 215 94 245 108 30 13 110 48 178 76 68 28 151 64 185 80
34 15 107 47 162 71 130 55 333 147 367 165 14 8 28 15 31 15 3 0 27 -18 53
-40 76 -63 167 -101 249 -105 43 -2 163 32 211 60 38 23 64 49 122 125 39 50
65 137 65 220 1 67 -3 84 -33 143 l-34 67 40 42 c21 23 48 51 59 63 12 11 50
54 85 95 36 41 67 77 71 80 3 3 32 37 64 75 62 75 157 185 190 222 l20 22 43
-19 c67 -30 140 -28 247 7 69 22 114 52 156 104 74 90 108 182 103 274 -5 80
-11 104 -43 169 -31 63 -43 78 -105 134 -42 38 -42 36 -1 177 13 44 37 134 54
200 17 66 58 224 92 350 33 127 62 241 65 255 10 47 126 465 151 544 16 50 45
107 81 160 79 114 322 515 322 530 0 2 23 43 51 92 45 78 184 350 279 546 18
38 38 68 44 69 44 4 128 7 301 13 329 12 416 15 492 21 l72 5 41 -70 c69 -119
202 -200 326 -200 64 0 161 26 209 57 64 40 133 120 166 190 85 182 -8 415
-199 500 l-53 23 6 708 c5 681 10 1083 19 1637 3 143 8 476 11 740 4 264 9
536 12 605 6 133 6 144 3 515 -1 132 -2 276 -1 320 0 44 1 87 1 95 0 27 8 454
9 476 1 16 18 29 65 53 156 76 262 284 219 428 -44 152 -139 259 -270 304 -51
17 -145 26 -183 16 -57 -14 -80 -23 -120 -44 -86 -45 -148 -120 -193 -233 -44
-110 -26 -220 53 -335 16 -24 36 -50 42 -57 7 -8 24 -26 37 -41 l24 -26 -27
-88 c-15 -48 -43 -133 -62 -188 -34 -96 -69 -212 -80 -264 -17 -78 -28 -62
-113 159 -29 74 -61 153 -72 176 -21 45 -38 121 -44 199 -2 28 -6 73 -9 100
-3 28 -8 75 -11 105 -4 30 -8 69 -10 85 -8 55 -27 190 -30 206 -2 9 -6 40 -10
70 -4 30 -9 57 -11 60 -2 3 -5 19 -8 35 -31 171 -172 559 -281 774 -11 23 -24
48 -74 145 -9 17 -19 31 -23 33 -5 2 -8 8 -8 13 0 5 -22 43 -50 85 -27 41 -50
79 -50 84 0 5 -4 10 -9 12 -4 2 -36 44 -71 93 -35 50 -92 126 -126 171 -34 44
-76 110 -93 145 -25 52 -148 360 -193 484 -6 17 -15 34 -20 40 -4 5 -8 19 -8
31 0 13 -4 25 -9 28 -5 3 -11 16 -14 28 -5 23 -87 241 -108 288 -20 43 -89
228 -93 245 -1 6 -8 21 -15 35 -10 17 -11 25 -2 28 20 7 98 116 122 172 33 76
33 181 0 265 -43 107 -104 174 -201 218 -57 26 -77 30 -160 31 -89 1 -99 -1
-162 -32 l-67 -33 -45 30 c-24 17 -46 35 -48 39 -1 5 -46 42 -98 82 -52 41
-194 153 -315 250 -121 96 -254 201 -295 232 -106 79 -138 112 -160 160 l-18
42 28 40 c16 23 44 55 62 73 18 17 51 64 73 105 36 68 39 79 40 153 0 90 -18
149 -70 230 -82 126 -196 189 -335 184 -100 -4 -158 -25 -233 -86 -27 -22 -28
-22 -50 -3 -19 17 -516 330 -523 330 -2 0 -49 31 -106 68 -57 38 -182 117
-278 177 -96 59 -197 122 -225 140 -27 18 -81 52 -120 77 -38 24 -170 107
-292 184 -123 76 -253 158 -290 182 -38 23 -77 47 -88 51 -11 5 -39 23 -62 40
-33 24 -41 35 -37 53 18 74 8 144 -31 241 -3 6 -14 26 -25 42 -11 17 -23 37
-26 45 -12 29 -107 99 -167 121 -119 45 -263 26 -368 -49 -21 -15 -60 -60 -86
-99 -32 -49 -52 -71 -63 -68 -8 2 -51 7 -95 10 -44 3 -93 8 -110 10 -16 2 -79
9 -140 15 -60 6 -128 13 -150 15 -22 2 -67 7 -100 10 -66 7 -123 13 -187 20
-24 2 -90 9 -148 15 -58 6 -118 13 -135 15 -16 2 -61 7 -100 10 -38 3 -89 8
-112 11 -105 11 -132 13 -188 19 -33 3 -80 8 -105 11 -25 2 -76 7 -115 10 -38
3 -77 7 -85 9 -14 4 -50 7 -217 20 -82 7 -148 13 -228 21 -33 3 -86 7 -119 9
-32 2 -59 5 -60 7 -2 2 -18 37 -38 78 -59 125 -139 201 -256 241 -74 25 -143
24 -225 -5z m517 -522 c9 -3 14 -9 12 -13 -2 -3 21 -6 52 -5 32 0 61 -1 66 -4
6 -3 26 -6 45 -8 110 -6 131 -8 131 -14 0 -3 17 -6 38 -6 20 -1 71 -4 112 -9
106 -11 120 -12 163 -14 20 0 37 -5 37 -10 0 -4 -109 -9 -242 -10 -134 -1
-296 -3 -361 -4 l-117 -3 4 27 c3 23 33 79 41 79 2 0 10 -3 19 -6z m-838 -66
c8 -12 -46 -30 -99 -33 -26 -1 -51 -5 -54 -9 -13 -12 -32 -6 -27 9 4 8 10 13
14 10 5 -3 11 -1 15 5 4 6 11 8 16 5 5 -4 9 -2 9 4 0 17 116 26 126 9z m2638
-231 l598 -2 29 -40 c15 -22 28 -45 29 -51 0 -5 20 -34 45 -63 25 -29 45 -61
45 -70 0 -27 -41 -124 -58 -138 -9 -8 -21 -9 -31 -4 -14 8 -298 108 -326 115
-58 15 -72 20 -84 30 -8 6 -16 10 -18 8 -4 -4 -115 18 -128 26 -5 4 -16 7 -24
9 -7 1 -34 7 -60 13 -25 6 -55 12 -66 15 -62 12 -342 78 -355 82 -8 3 -28 7
-44 9 -16 2 -70 13 -120 25 -50 11 -101 22 -114 25 -40 8 -15 21 35 17 26 -2
317 -5 647 -6z m1297 -277 c46 -38 97 -81 113 -95 16 -14 30 -25 32 -25 3 0
222 -175 309 -247 17 -13 42 -32 58 -41 15 -9 27 -20 27 -24 0 -4 4 -8 10 -8
5 0 18 -7 27 -15 10 -8 47 -37 83 -65 36 -28 72 -56 80 -63 8 -7 35 -28 60
-46 25 -19 53 -43 62 -52 9 -9 37 -32 62 -50 25 -18 46 -36 46 -41 0 -4 5 -8
10 -8 6 0 21 -9 33 -21 12 -12 55 -43 95 -70 105 -72 94 -76 -28 -11 -36 19
-72 41 -81 48 -8 8 -20 14 -25 14 -5 0 -53 27 -106 59 -54 33 -107 62 -118 66
-11 3 -26 12 -32 18 -23 22 -449 237 -468 237 -6 0 -10 4 -10 8 0 5 -6 9 -12
9 -7 0 -34 10 -60 21 -26 12 -49 22 -52 22 -3 0 -34 13 -68 29 -106 48 -202
88 -289 122 -125 48 -150 65 -143 97 9 42 31 87 51 104 10 8 53 28 95 43 43
15 86 34 95 41 33 25 59 14 144 -56z m-6543 -125 c-7 -7 -119 -56 -248 -109
-129 -54 -250 -104 -269 -113 -18 -8 -39 -16 -45 -17 -6 -2 -37 -15 -70 -29
-32 -15 -64 -27 -71 -27 -8 0 -15 -3 -17 -7 -2 -7 -92 -54 -108 -58 -14 -3
-193 -95 -206 -106 -8 -6 -14 -9 -14 -6 0 3 -66 -31 -147 -75 -82 -44 -166
-89 -188 -101 -22 -12 -42 -25 -45 -28 -3 -3 -30 -19 -60 -35 -30 -16 -56 -32
-58 -36 -2 -5 -7 -8 -12 -8 -10 0 -201 -116 -282 -171 -31 -21 -62 -39 -68
-39 -5 0 -10 -3 -10 -8 0 -13 -64 -42 -85 -38 -11 2 -36 11 -55 20 -19 8 -89
34 -155 56 -140 47 -205 76 -205 90 0 18 47 41 191 89 79 27 234 80 344 119
110 38 235 81 277 96 43 15 86 29 95 31 10 2 50 15 88 30 39 14 97 35 130 46
33 11 83 29 110 39 28 11 91 33 140 50 50 17 99 36 110 41 12 6 27 11 35 13 8
2 26 7 40 13 14 6 113 40 220 77 107 37 204 71 215 76 11 4 49 18 85 30 36 12
72 25 80 28 8 3 17 6 20 7 3 1 12 5 20 8 49 22 184 66 191 62 4 -3 10 -1 14 5
4 6 11 7 17 4 6 -4 5 -11 -4 -19z m8128 -806 c24 -14 41 -29 37 -33 -4 -4 0
-4 10 0 10 3 17 1 17 -5 0 -6 7 -11 15 -11 8 0 15 -4 15 -10 0 -5 6 -10 13
-10 7 0 23 -9 35 -20 12 -11 24 -20 27 -20 15 0 103 -69 97 -75 -4 -5 -1 -5 6
-1 7 4 32 -6 58 -23 25 -17 49 -31 55 -31 5 0 9 -7 9 -16 0 -8 4 -13 9 -10 10
7 9 -54 -2 -72 -6 -9 -20 -4 -55 20 -26 18 -56 41 -68 53 -11 11 -36 31 -54
45 -18 14 -47 36 -64 50 -17 14 -37 29 -44 35 -7 5 -22 18 -33 28 -10 9 -23
17 -28 17 -6 0 -16 8 -23 18 -7 9 -26 25 -41 35 -15 10 -25 23 -21 29 4 7 3 8
-4 4 -6 -4 -19 0 -29 9 -10 8 -36 31 -58 50 l-40 35 58 -33 c32 -17 78 -44
103 -58z m-10441 -331 c50 -17 92 -33 95 -35 2 -2 -11 -17 -30 -34 -48 -40
-44 -37 -145 -109 -49 -36 -94 -70 -100 -76 -5 -7 -48 -42 -95 -79 -47 -38
-87 -71 -90 -75 -3 -3 -15 -13 -26 -21 -12 -8 -57 -46 -100 -84 -42 -39 -79
-69 -81 -67 -2 1 -14 -8 -26 -21 -12 -12 -56 -45 -97 -72 -41 -26 -107 -70
-147 -97 -66 -44 -123 -74 -123 -63 0 9 34 80 46 95 12 16 69 119 114 206 14
27 34 61 43 74 9 13 14 27 11 31 -2 4 0 10 5 13 4 3 21 32 36 63 16 32 32 60
35 63 4 3 11 16 15 29 6 19 68 134 81 150 2 2 41 5 87 6 69 2 94 7 148 33 35
17 91 53 123 81 l59 50 36 -16 c20 -8 77 -29 126 -45z m11751 -1023 c6 -5 22
-17 34 -25 99 -65 352 -279 344 -291 -3 -5 1 -6 9 -3 8 3 17 -1 20 -10 6 -15
-16 -30 -28 -18 -4 4 -10 7 -13 7 -58 4 -84 20 -163 101 -46 48 -92 94 -103
104 -10 10 -15 23 -12 29 4 6 1 9 -6 6 -7 -3 -29 13 -48 36 -19 23 -45 53 -57
67 -37 41 -25 39 23 -3z m-13336 -345 c0 -4 -10 -17 -22 -28 -57 -51 -81 -72
-86 -72 -5 0 67 82 82 92 7 5 7 8 -2 8 -7 0 -11 4 -7 10 6 10 35 2 35 -10z
m14262 -632 c8 -13 21 -41 28 -63 7 -22 16 -44 20 -50 4 -5 10 -19 13 -30 3
-11 21 -58 41 -103 21 -48 31 -82 24 -80 -13 4 -78 81 -108 128 -8 12 -20 28
-25 34 -19 20 -84 131 -86 146 -3 31 2 41 24 49 26 10 49 0 69 -31z m-14712
-232 c0 -3 -6 -11 -12 -18 -7 -7 -24 -33 -37 -58 -14 -25 -30 -49 -38 -53 -7
-4 -13 -12 -13 -18 0 -5 -18 -37 -40 -70 -22 -33 -40 -63 -40 -65 0 -3 -5 -10
-10 -17 -21 -24 -74 -112 -72 -119 1 -5 -2 -8 -8 -8 -5 0 -10 -7 -10 -15 0 -8
-4 -15 -9 -15 -5 0 -11 -8 -15 -17 -3 -10 -17 -36 -30 -58 -14 -22 -28 -47
-32 -55 -4 -8 -10 -17 -13 -20 -9 -7 -37 -56 -72 -123 -18 -36 -34 -55 -41
-51 -7 4 -8 3 -4 -5 6 -9 -66 -173 -84 -191 -7 -6 -210 -425 -210 -432 0 -3
-12 -32 -27 -64 -15 -33 -27 -61 -28 -64 -4 -17 -20 -61 -35 -95 -10 -22 -40
-93 -66 -157 -31 -74 -56 -121 -69 -127 -11 -5 -47 -12 -80 -16 -33 -3 -76 -8
-95 -10 -19 -3 -60 -7 -90 -10 -30 -3 -73 -8 -96 -10 -23 -3 -63 -7 -90 -10
-27 -2 -49 -5 -49 -5 0 -1 -16 -3 -36 -5 -20 -1 -50 -6 -66 -9 -30 -7 -63 12
-63 36 0 12 37 66 65 93 11 11 47 52 80 90 33 39 64 75 70 81 17 19 98 115
185 219 46 55 86 102 90 105 3 3 53 59 110 125 57 66 109 125 115 130 6 6 56
64 110 130 55 66 112 132 127 148 15 15 28 29 28 32 0 3 8 13 18 23 9 10 42
47 72 82 30 35 69 80 86 100 17 19 44 50 60 69 16 19 36 42 44 50 8 9 40 48
70 86 85 108 169 207 257 302 18 20 43 49 55 64 20 26 38 37 38 25z m-1095
-2188 c-7 -24 -27 -83 -43 -133 -17 -49 -40 -121 -51 -160 -11 -38 -34 -115
-50 -170 -67 -223 -173 -722 -236 -1115 -5 -34 -33 -243 -40 -305 -3 -27 -7
-68 -10 -90 -2 -22 -7 -69 -10 -105 -3 -36 -7 -90 -10 -120 -10 -123 -24 -411
-29 -590 -4 -135 -9 -155 -100 -355 -43 -94 -40 -86 -106 -238 -28 -66 -60
-133 -71 -150 -18 -31 -19 -31 -19 -7 0 44 -10 1117 -15 1675 -9 943 -12 1499
-8 1516 3 9 23 23 46 30 55 18 154 117 195 195 18 34 32 69 32 78 0 9 3 16 8
17 4 0 14 2 22 3 8 2 39 6 68 10 28 3 67 8 85 10 53 7 119 15 177 22 30 3 73
10 95 14 22 4 50 8 62 9 21 1 22 0 8 -41z m17370 -1648 c4 -22 13 -44 21 -51
8 -6 14 -18 14 -25 0 -8 4 -14 8 -14 17 0 38 -111 22 -117 -3 -1 -17 -6 -32
-12 -35 -13 -46 0 -52 67 -4 40 -2 51 7 45 9 -5 9 -4 0 8 -6 8 -13 39 -14 69
-1 30 -6 62 -10 71 -5 9 -5 19 -1 23 10 11 30 -22 37 -64z m457 -920 c-6 -43
-18 -45 -18 -4 0 19 5 34 11 34 7 0 10 -12 7 -30z m-227 -72 c2 -7 6 -110 10
-228 3 -118 7 -237 9 -265 3 -46 11 -200 21 -445 5 -106 15 -276 20 -342 5
-61 14 -232 20 -373 3 -66 8 -172 11 -235 3 -63 7 -149 9 -190 3 -69 11 -231
20 -405 2 -38 7 -131 10 -205 4 -74 8 -164 10 -200 2 -36 6 -139 10 -230 3
-91 8 -185 10 -210 7 -62 0 -76 -51 -102 -25 -12 -63 -37 -84 -55 -39 -34
-100 -128 -100 -155 0 -30 -26 -36 -180 -43 -85 -3 -195 -8 -245 -11 -180 -7
-311 -15 -338 -18 -34 -4 -34 -6 33 154 55 132 139 366 200 555 23 72 45 140
50 152 8 19 40 132 70 248 82 314 86 330 105 425 3 14 8 36 11 50 3 14 8 36
10 50 2 14 11 57 19 95 13 64 44 245 61 355 3 25 8 54 10 65 2 11 5 38 8 60 3
22 9 57 12 78 3 21 7 55 9 75 5 56 15 153 20 187 7 49 14 115 20 205 3 47 8
112 10 145 7 98 15 251 19 394 l5 134 73 148 c40 82 77 149 81 149 4 0 9 -6
12 -12z m-18050 -874 c2 -21 7 -88 10 -149 4 -60 9 -118 11 -128 2 -11 6 -45
9 -76 5 -56 15 -144 21 -191 22 -174 8 -261 -45 -276 -45 -13 -68 -3 -75 32
-42 202 -62 254 -125 320 -16 17 -31 38 -32 45 -3 16 31 90 46 101 6 4 6 8 2
8 -5 0 -2 12 6 28 22 43 55 118 62 142 1 3 10 23 20 45 10 22 19 42 20 45 0 3
12 29 24 58 26 58 39 57 46 -4z m-96 -1023 c32 -25 31 -64 -2 -131 -15 -30
-27 -62 -27 -72 0 -46 -59 -21 -60 25 0 10 -7 29 -16 42 -9 14 -12 25 -8 25 5
0 4 4 -2 8 -6 4 -14 21 -18 38 -10 45 23 84 72 84 20 0 48 -9 61 -19z m268
-216 c7 -33 16 -73 19 -90 5 -28 19 -90 28 -125 3 -8 13 -53 25 -100 11 -47
29 -119 41 -160 32 -111 40 -141 50 -180 15 -65 67 -234 104 -340 21 -58 42
-120 48 -137 6 -18 9 -35 6 -38 -9 -9 -191 45 -213 63 -19 16 -33 45 -71 145
-9 23 -20 51 -24 62 -11 27 -23 59 -25 65 -1 3 -9 22 -18 44 -9 21 -17 41 -17
44 0 4 -15 45 -34 92 -19 47 -48 123 -66 170 -17 47 -37 95 -42 107 -12 24
-10 32 22 113 12 30 39 105 61 165 74 209 70 200 83 179 6 -11 17 -46 23 -79z
m-453 -321 c11 -28 6 -71 -9 -84 -12 -10 -16 -9 -21 4 -3 8 -4 21 -1 28 2 7 1
23 -4 34 -4 12 -5 25 -2 28 12 11 31 6 37 -10z m168 -405 c13 -14 22 -32 20
-42 -4 -18 -22 -24 -22 -6 0 5 -4 8 -9 5 -9 -6 -61 41 -61 55 0 9 20 17 37 15
7 -1 22 -13 35 -27z m92 -534 c18 -1 55 -13 81 -26 47 -24 47 -25 105 -166 32
-78 56 -144 52 -147 -3 -3 0 -6 6 -6 7 0 12 -4 12 -10 0 -5 11 -34 25 -64 34
-74 46 -106 39 -106 -16 0 -174 191 -174 210 0 4 -16 25 -35 46 -19 22 -35 43
-35 48 0 4 -12 22 -26 40 -57 70 -124 159 -124 165 0 13 23 30 32 25 5 -3 24
-7 42 -9z m436 -116 c19 -5 44 -12 55 -14 11 -3 34 -8 50 -11 52 -11 82 -32
100 -70 9 -20 18 -42 19 -48 2 -6 9 -24 16 -41 17 -39 32 -75 65 -155 47 -114
55 -131 156 -336 54 -111 99 -206 99 -212 0 -6 4 -12 8 -14 4 -1 23 -32 41
-68 18 -36 50 -94 72 -130 21 -36 39 -71 39 -77 0 -7 3 -13 8 -13 4 0 25 -35
47 -77 22 -43 45 -83 52 -90 6 -7 17 -26 25 -43 7 -16 16 -30 20 -30 5 0 8 -4
8 -9 0 -14 201 -328 248 -386 4 -5 32 -46 62 -90 30 -44 63 -90 73 -102 11
-12 17 -29 14 -37 -4 -10 -1 -13 7 -10 7 3 25 -14 42 -38 16 -24 39 -54 52
-68 12 -14 22 -28 22 -32 0 -3 6 -13 13 -20 6 -7 74 -89 149 -183 148 -184
166 -206 234 -277 27 -28 43 -52 38 -59 -4 -7 -3 -9 4 -5 12 7 13 6 102 -94
36 -40 166 -175 290 -299 171 -172 228 -236 237 -264 6 -20 8 -39 5 -41 -4 -2
-41 5 -82 16 -41 10 -88 21 -105 23 -16 3 -68 17 -115 31 -74 23 -91 33 -136
78 -28 29 -70 81 -94 117 -24 35 -46 66 -50 69 -3 3 -30 39 -60 80 -30 41 -58
80 -63 85 -4 6 -21 28 -37 50 -16 22 -33 45 -38 50 -12 15 -240 322 -294 395
-26 36 -52 70 -56 75 -5 6 -17 24 -28 40 -10 16 -26 37 -34 46 -8 8 -22 26
-30 38 -21 32 -83 113 -98 130 -22 23 -132 169 -132 175 0 3 -8 15 -17 25 -26
28 -35 40 -73 96 -18 28 -36 52 -40 55 -22 18 -78 109 -72 116 4 5 3 6 -2 2
-5 -4 -20 7 -33 24 -51 70 -69 93 -95 124 -16 17 -28 34 -28 38 0 3 -11 18
-25 33 -56 64 -125 165 -119 175 4 7 2 8 -4 4 -7 -4 -23 11 -39 36 -15 24 -31
45 -34 48 -11 9 -89 156 -92 176 -2 10 -11 35 -19 54 -21 50 -49 128 -50 137
0 5 -5 17 -11 28 -6 11 -12 22 -12 25 -1 3 -9 22 -18 44 -9 21 -17 45 -17 52
0 8 -4 14 -10 14 -5 0 -10 5 -10 11 0 6 -23 70 -51 143 -58 151 -51 134 -119
296 -29 69 -53 130 -54 136 -1 7 -8 19 -15 28 -7 8 -10 20 -6 26 8 12 3 12 45
-1z m800 -2013 c0 -4 4 -12 10 -19 17 -21 73 -94 148 -194 234 -314 314 -420
327 -436 8 -9 15 -21 15 -26 0 -5 3 -11 8 -13 7 -3 75 -90 125 -160 15 -22 32
-45 38 -51 5 -7 27 -35 47 -63 20 -28 73 -99 117 -158 44 -59 79 -110 77 -114
-5 -13 -93 2 -152 25 -8 4 -17 7 -20 8 -35 12 -39 17 -55 78 -2 4 -4 9 -5 12
-4 7 -5 15 -14 58 -5 20 -12 37 -16 37 -5 0 -12 10 -15 21 -9 27 -108 125
-135 134 -11 3 -20 11 -20 16 0 5 -4 9 -9 9 -5 0 -26 8 -47 17 -22 9 -65 18
-97 19 -32 0 -62 5 -66 10 -6 8 -18 36 -51 119 -9 21 -22 57 -25 65 -1 3 -7
19 -14 35 -7 17 -14 35 -15 40 -2 6 -8 23 -14 38 -7 16 -12 32 -12 37 0 5 -6
24 -14 42 -8 18 -21 49 -30 68 -22 51 -39 94 -40 100 -4 17 -54 132 -73 167
-13 23 -23 48 -23 55 0 7 -11 34 -24 60 -13 26 -21 50 -18 53 5 5 92 -78 92
-89z m14746 -318 c-6 -32 -26 -110 -33 -128 -8 -20 -6 -12 -58 -215 -26 -99
-49 -183 -52 -187 -2 -5 -6 -18 -9 -31 -2 -12 -15 -62 -29 -112 -14 -49 -28
-101 -31 -115 -10 -48 -47 -151 -57 -157 -5 -3 -17 -7 -26 -7 -71 -8 -179 -61
-234 -117 -27 -28 -72 -109 -95 -172 -22 -58 -27 -125 -13 -161 12 -32 1 -66
-25 -72 -13 -3 -24 -10 -24 -15 0 -5 -5 -9 -10 -9 -6 0 -27 -11 -48 -24 -20
-14 -49 -28 -64 -31 -24 -6 -26 -5 -21 17 3 12 9 28 13 33 4 6 13 33 20 60 7
28 16 55 20 60 4 6 24 66 45 135 20 69 42 131 49 139 6 8 9 15 7 15 -6 1 19
97 29 111 4 6 15 37 25 70 87 294 113 361 154 405 98 102 328 366 401 460 50
65 54 69 63 70 4 0 6 -10 3 -22z m-860 -953 c-4 -14 -7 -28 -7 -32 0 -5 -8
-16 -16 -25 -9 -10 -13 -18 -10 -18 3 0 -1 -19 -9 -42 -9 -24 -29 -86 -44
-138 -73 -247 -151 -485 -166 -509 -25 -37 -33 -44 -84 -69 -25 -12 -96 -54
-159 -92 -63 -39 -116 -70 -118 -70 -1 0 -27 -16 -57 -35 -30 -19 -59 -35 -64
-35 -4 0 -17 -8 -28 -18 -10 -9 -30 -23 -44 -29 -14 -7 -47 -26 -75 -43 -92
-56 -92 -56 -138 -33 -81 39 -154 71 -274 119 -40 16 -71 33 -70 39 2 5 15 16
30 25 29 16 259 172 267 180 3 3 61 45 130 94 110 78 376 280 390 295 3 4 26
23 52 44 26 21 53 43 60 50 7 7 54 46 103 87 50 41 128 111 174 155 160 153
172 161 157 100z m-12944 -202 c5 -2 16 -6 25 -8 114 -26 186 -57 207 -89 8
-13 21 -29 28 -37 8 -8 39 -48 68 -89 30 -41 71 -97 92 -123 36 -46 44 -83 13
-55 -30 27 -44 38 -50 38 -3 0 -40 27 -83 60 -42 34 -131 102 -197 152 -66 50
-119 95 -117 100 1 5 -2 7 -8 3 -6 -4 -27 10 -47 30 l-36 36 49 -7 c27 -3 52
-8 56 -11z m678 -180 c88 -29 97 -36 104 -85 15 -98 19 -114 27 -130 5 -10 8
-18 5 -18 -3 0 2 -16 10 -36 8 -20 13 -38 10 -41 -8 -8 -65 39 -90 76 -13 20
-36 50 -51 66 -27 30 -95 124 -130 178 l-18 28 29 -7 c16 -4 63 -18 104 -31z
m458 -119 c45 -14 95 -30 110 -36 26 -12 112 -66 122 -77 3 -3 28 -22 55 -41
28 -19 55 -39 61 -45 6 -5 22 -17 35 -25 52 -34 104 -89 94 -99 -6 -6 -44 -22
-85 -37 -41 -14 -79 -30 -84 -35 -6 -5 -18 -9 -27 -9 -10 0 -19 -4 -21 -9 -6
-17 -54 -23 -69 -9 -59 55 -149 107 -209 121 -14 3 -33 12 -42 19 -18 13 -31
68 -54 227 -4 25 -10 54 -15 63 -10 18 6 30 31 21 8 -3 52 -16 98 -29z m11879
-376 c-1 -4 -39 -48 -85 -96 -69 -72 -85 -84 -93 -71 -6 12 -2 33 14 67 19 43
30 55 78 80 55 28 90 37 86 20z m-11120 -185 c74 -94 177 -208 217 -242 91
-76 218 -202 211 -209 -2 -2 -44 10 -92 28 -86 32 -209 76 -558 197 -179 63
-243 91 -265 118 -21 25 -7 33 170 96 30 11 96 39 145 63 50 25 91 45 92 45 1
1 37 -43 80 -96z m10688 -74 c7 -10 -35 -40 -47 -33 -4 3 -8 2 -8 -3 0 -13
-47 -31 -59 -23 -7 3 -9 14 -6 22 7 18 53 41 66 32 5 -3 9 -2 8 3 -1 4 -1 11
0 15 1 8 40 -2 46 -13z m-1180 -59 c28 -13 111 -49 185 -81 74 -32 136 -62
138 -67 1 -5 -14 -20 -35 -34 -37 -25 -450 -269 -543 -321 -25 -13 -85 -50
-135 -80 -138 -86 -303 -178 -328 -184 -12 -3 -27 -10 -34 -15 -10 -8 -139
-46 -213 -63 -8 -2 -55 -14 -105 -28 -80 -23 -523 -143 -600 -162 -16 -5 -34
-10 -40 -11 -45 -15 -125 -36 -150 -41 -16 -3 -37 -8 -45 -13 -8 -4 -40 -13
-70 -19 -30 -7 -62 -15 -70 -18 -8 -3 -19 -7 -25 -9 -5 -1 -109 -30 -230 -63
-185 -52 -407 -112 -465 -127 -8 -2 -40 -10 -70 -19 -30 -9 -62 -17 -70 -19
-58 -14 -110 -29 -142 -41 -21 -8 -38 -12 -38 -10 0 3 -8 1 -19 -4 -10 -6 -31
-13 -47 -15 -16 -3 -44 -10 -61 -15 -18 -5 -33 -7 -33 -4 0 3 -6 1 -12 -5 -7
-6 -31 -13 -53 -17 -22 -4 -45 -11 -51 -16 -16 -13 -39 -5 -154 49 -58 27
-130 60 -160 72 -90 39 -93 29 47 143 77 63 90 68 223 92 39 6 443 76 465 80
78 13 459 95 485 105 14 5 39 12 55 15 112 19 748 217 850 264 11 6 31 13 45
16 14 4 39 13 55 20 17 8 77 32 135 55 58 23 119 48 135 55 17 7 85 36 153 64
119 50 450 210 582 283 36 19 99 54 141 77 42 22 114 63 160 90 46 27 86 48
89 46 3 -1 28 -13 55 -25z m691 -296 c27 -14 58 -35 69 -47 11 -12 16 -18 11
-14 -5 3 -17 -3 -27 -15 -11 -11 -19 -19 -19 -15 0 3 -28 -4 -62 -14 -35 -11
-72 -22 -83 -24 -75 -16 -121 -29 -130 -35 -5 -3 -48 -15 -95 -25 -47 -10 -87
-21 -90 -24 -3 -3 -9 -7 -15 -8 -5 0 -35 -8 -65 -17 l-55 -16 26 24 c14 13 45
35 70 49 24 15 60 36 79 47 19 11 49 29 65 40 92 59 213 120 241 120 17 0 53
-12 80 -26z m-10306 -57 c0 3 6 1 13 -4 18 -15 94 -42 537 -193 223 -76 522
-179 665 -228 143 -50 370 -128 505 -174 212 -72 245 -86 243 -103 -4 -56
-148 -448 -172 -469 -15 -14 -100 -45 -117 -44 -3 1 -32 -12 -64 -27 l-58 -28
-45 34 c-152 115 -210 159 -272 209 -109 87 -218 173 -251 197 -16 12 -67 51
-114 85 -72 54 -334 255 -365 280 -5 5 -48 38 -95 73 -47 36 -94 73 -106 82
-11 10 -33 27 -48 38 -256 186 -391 296 -379 308 2 3 31 -5 64 -18 32 -13 59
-21 59 -18z m9270 -565 c0 -5 -19 -15 -42 -21 -24 -7 -67 -24 -96 -37 -29 -13
-54 -24 -57 -24 -5 0 -250 -112 -287 -131 -9 -5 -19 -5 -22 0 -10 15 245 171
280 171 7 0 25 5 41 12 34 14 48 17 93 25 19 3 37 7 39 9 8 8 51 4 51 -4z
m-6970 -232 c47 -16 171 -59 275 -95 105 -37 201 -71 215 -75 62 -20 497 -171
510 -177 8 -3 20 -7 25 -8 6 -2 167 -55 359 -119 347 -117 537 -185 585 -211
23 -13 24 -14 6 -16 -11 0 -33 -1 -50 0 -264 6 -747 12 -1325 17 -393 3 -720
7 -727 9 -6 2 -24 29 -39 60 -15 31 -49 75 -75 99 -27 24 -46 45 -44 48 2 2 6
15 8 28 3 14 37 122 77 240 39 118 73 221 76 229 2 8 11 10 22 6 9 -4 55 -20
102 -35z m3368 -65 c2 -2 -5 -13 -15 -24 -21 -25 -48 -28 -39 -5 3 8 2 12 -4
9 -6 -3 -10 3 -10 14 0 10 6 21 13 24 10 3 41 -7 55 -18z m-1230 -7 c24 -23
67 -93 139 -228 102 -189 121 -227 127 -252 11 -48 28 -52 -474 122 -129 45
-282 97 -340 115 -58 18 -206 67 -330 109 -221 75 -248 84 -262 85 -5 1 -8 6
-8 12 0 7 46 8 148 4 81 -4 163 -7 182 -7 56 0 322 12 355 16 17 2 64 7 105
11 41 4 78 9 81 11 4 2 24 6 45 10 22 3 40 7 41 7 1 1 39 3 84 5 74 2 85 0
107 -20z m3712 13 c0 -8 -37 -34 -120 -86 -90 -56 -410 -245 -415 -245 -4 0
-25 -13 -48 -29 -23 -15 -69 -43 -102 -61 -33 -18 -74 -44 -91 -56 -30 -23
-31 -23 -50 -6 -90 85 -257 120 -361 77 -19 -8 -44 -15 -54 -15 -11 0 -19 -4
-19 -9 0 -5 -8 -11 -17 -15 -25 -8 -53 -27 -80 -55 -29 -30 -68 -24 -148 24
-31 19 -61 35 -66 35 -5 0 -9 4 -9 10 0 9 30 19 125 40 53 12 56 13 120 30 53
14 64 17 103 29 17 5 32 8 32 5 0 -3 8 0 19 5 10 6 116 35 236 66 120 31 222
58 226 61 5 3 17 7 26 9 10 1 61 15 113 29 52 15 129 36 170 47 41 10 125 35
185 54 61 18 135 40 165 49 30 8 56 15 58 15 1 1 2 -3 2 -8z m-3071 -44 c19
-9 38 -17 43 -17 6 0 39 -13 75 -30 35 -16 66 -30 68 -30 2 0 42 -18 90 -40
64 -29 84 -43 78 -53 -4 -7 -48 -49 -98 -92 -49 -44 -97 -87 -105 -96 -8 -9
-19 -15 -25 -13 -5 1 -44 13 -85 25 -97 30 -96 30 -152 18 -45 -10 -50 -9 -68
13 -10 12 -27 41 -37 63 -10 22 -23 46 -30 53 -7 7 -13 18 -13 23 0 5 -27 50
-60 100 -33 50 -60 92 -60 95 0 2 78 3 173 1 139 -2 178 -6 206 -20z m708
-303 c39 -18 74 -38 78 -43 5 -9 -30 -22 -95 -35 -67 -13 -189 -46 -221 -60
-46 -19 -87 -27 -93 -17 -5 8 134 140 188 178 36 25 43 24 143 -23z m553 -241
c73 -38 136 -74 138 -82 3 -8 0 -11 -6 -7 -7 4 -159 9 -339 13 -181 3 -332 9
-337 13 -5 5 10 13 33 19 22 6 60 16 84 22 23 6 77 22 120 36 43 14 84 26 90
28 7 1 23 7 37 13 14 6 30 11 35 11 6 1 71 -29 145 -66z"/>
</g>
</svg>
